PathFileType	4	(X/Y/Z)	./resultDataOpenSim/trcMotMarkerGrf/sub06/qtm-01-07.trc
DataRate	CameraRate	NumFrames	NumMarkers	Units	OrigDataRate	OrigDataStartFrame	OrigNumFrames
250.000000	250.000000	14	24	m	250.000000	245	489
Frame#	Time	L.Toe.Tip			R.Toe.Tip			L.Ankle.Lat			R.Ankle.Lat			L.Ankle.Med			R.Ankle.Med			L.Heel			R.Heel			L.Knee.Lat			R.Knee.Lat			L.Knee.Med			R.Knee.Med			L.Thigh.Upper			R.Thigh.Upper			L.ASIS			R.ASIS			V.Sacral			L.Acromium			R.Acromium			C7			L.Elbow			R.Elbow			L.Wrist.Lat			R.Wrist.Lat
		X1	Y1	Z1	X2	Y2	Z2	X3	Y3	Z3	X4	Y4	Z4	X5	Y5	Z5	X6	Y6	Z6	X7	Y7	Z7	X8	Y8	Z8	X9	Y9	Z9	X10	Y10	Z10	X11	Y11	Z11	X12	Y12	Z12	X13	Y13	Z13	X14	Y14	Z14	X15	Y15	Z15	X16	Y16	Z16	X17	Y17	Z17	X18	Y18	Z18	X19	Y19	Z19	X20	Y20	Z20	X21	Y21	Z21	X22	Y22	Z22	X23	Y23	Z23	X24	Y24	Z24

245	0.976	0.072236833	0.034359463	-0.055401385	0.55237271	0.095436795	0.1482112	-0.046018967	0.08315241	-0.080959756	0.41544197	0.084121625	0.14960553	-0.044564854	0.097388728	0.0064440418	0.44312231	0.11493937	0.067604324	-0.12368732	0.065949489	-0.035682779	0.38299304	0.049580412	0.079400899	0.09288963	0.42878227	-0.095527019	0.36292215	0.47499165	0.16137574	0.070562202	0.43465421	0.023792366	0.35365981	0.45455989	0.033617339	0.17164951	0.81024517	-0.16286152	0.18226752	0.80341551	0.18486982	0.25206986	0.85161775	-0.12169572	0.26681455	0.85797888	0.12436961	0.07339655	0.93120335	0.017396131	0.21148601	1.3443406	-0.17360384	0.18720442	1.3253066	0.18765315	0.12408157	1.3707531	0.0012154652	0.22736788	1.0235238	-0.25250409	0.049764384	1.0384172	0.23545612	0.4434916	0.90144159	-0.22003877	0.13182229	0.81485458	0.28137188
246	0.98	0.072227265	0.034317632	-0.05546102	0.56988518	0.099541723	0.14827149	-0.045587149	0.083887314	-0.08138992	0.43344223	0.08427819	0.15083778	-0.044201529	0.09821875	0.0062689685	0.45953111	0.11563012	0.068568371	-0.12343881	0.067364451	-0.036304458	0.40131476	0.048525882	0.081333089	0.095536967	0.42842871	-0.09562937	0.36960898	0.47302087	0.16078903	0.073722975	0.43428687	0.023606507	0.36021418	0.45199853	0.032823805	0.17690996	0.80921903	-0.16260005	0.19013544	0.802001	0.18534389	0.25792656	0.85045488	-0.12202667	0.27426258	0.85656255	0.12449366	0.080118255	0.92989567	0.018484713	0.21804036	1.3430915	-0.17323907	0.19347885	1.3240134	0.18804488	0.13060556	1.3695579	0.001562233	0.23583142	1.022445	-0.25233745	0.055295972	1.0377324	0.2354616	0.45290094	0.90241913	-0.21860221	0.13538069	0.81368313	0.28218512
247	0.984	0.072229315	0.034276845	-0.055516371	0.58691481	0.10378091	0.14833371	-0.045102426	0.084607486	-0.081811138	0.45113833	0.084668846	0.1520329	-0.043595418	0.099005311	0.0060094963	0.47550564	0.1165104	0.069526795	-0.12313008	0.068686981	-0.036752055	0.41916353	0.047832216	0.083295442	0.098476124	0.4280579	-0.095887269	0.37631881	0.47103481	0.160235	0.077017736	0.43383722	0.02344694	0.36680633	0.44938409	0.031977387	0.18217859	0.80817021	-0.16231197	0.19780047	0.80047614	0.18564407	0.26395294	0.84931498	-0.12220831	0.28184987	0.85514855	0.12465261	0.086951252	0.92855515	0.019730158	0.22459417	1.341794	-0.17285909	0.19976748	1.3226874	0.18844419	0.13712823	1.3683213	0.0019304404	0.24427306	1.0213203	-0.25214773	0.060950433	1.0369961	0.23547668	0.46223914	0.90332001	-0.21717532	0.13911481	0.81250522	0.28303771
248	0.988	0.072239578	0.03423896	-0.05556909	0.60343091	0.10810527	0.14837945	-0.044564956	0.085306746	-0.082176418	0.46831955	0.085426843	0.1532429	-0.042824968	0.099745475	0.005665781	0.4910073	0.11755136	0.070437515	-0.12275462	0.069935878	-0.037061085	0.43648676	0.047475338	0.085237602	0.10160662	0.42765693	-0.096185087	0.38304156	0.46905782	0.15979023	0.080459736	0.43330099	0.023309145	0.37344603	0.44675388	0.031112443	0.1874599	0.8071041	-0.16200226	0.20527324	0.79883295	0.18577957	0.27019155	0.84821752	-0.12221125	0.28948756	0.85372983	0.12479729	0.093900426	0.92718704	0.021138066	0.2311458	1.3404511	-0.17246474	0.20608582	1.3213343	0.18885762	0.14365338	1.3670486	0.0023191376	0.25268653	1.0201395	-0.25194206	0.066681088	1.0362062	0.23548811	0.47151085	0.90414781	-0.21575625	0.14305201	0.81132935	0.2839396
249	0.992	0.072250314	0.034204254	-0.055622325	0.61939732	0.11247405	0.14836374	-0.044002287	0.085992195	-0.082471839	0.48476731	0.086688069	0.1545142	-0.042038468	0.10045264	0.0052742559	0.50600521	0.11873942	0.071267196	-0.12232599	0.071189793	-0.037365927	0.45325261	0.047383524	0.087122441	0.10488704	0.42721826	-0.096467171	0.38973805	0.46709812	0.15951563	0.084051012	0.4326851	0.023187407	0.38013421	0.44415835	0.030246223	0.1927642	0.80602294	-0.16168044	0.21276472	0.79713373	0.18587144	0.27654088	0.84713437	-0.12212626	0.29706987	0.85229264	0.12486954	0.10094317	0.92579901	0.022645748	0.23769528	1.3390694	-0.17205766	0.21244448	1.3199596	0.18928876	0.15018518	1.3657434	0.0027249165	0.26105955	1.0188968	-0.25171917	0.072453054	1.0353577	0.23548953	0.48072338	0.90490983	-0.21434036	0.14715697	0.81014769	0.28487334
250	0.996	0.072258959	0.034173716	-0.055676894	0.63477211	0.11683324	0.14825365	-0.043446689	0.08667759	-0.082698506	0.50044043	0.088398373	0.15579067	-0.041311106	0.1011648	0.004871556	0.52049465	0.12006005	0.071993502	-0.12186427	0.072526629	-0.037773329	0.46944112	0.047486954	0.088873293	0.10831046	0.42674289	-0.096720635	0.39638749	0.46516462	0.15941963	0.087798978	0.43201049	0.023070508	0.3868678	0.44165549	0.02938624	0.19810352	0.80492928	-0.16134358	0.22038416	0.79542845	0.18597676	0.28287348	0.84602202	-0.12205081	0.30456674	0.85083685	0.12485723	0.10805244	0.9243974	0.024183764	0.24424405	1.3376551	-0.17164014	0.21883692	1.3185663	0.1897349	0.15672242	1.364411	0.0031419728	0.26937107	1.0176005	-0.251463	0.0782343	1.0344523	0.23547882	0.48988173	0.90561003	-0.21292628	0.15132453	0.80893906	0.28579634
251	1	0.072268832	0.034147983	-0.055731344	0.64951372	0.12110971	0.14804674	-0.042875988	0.08735887	-0.082866036	0.51548458	0.090284865	0.156922	-0.040618618	0.1019149	0.0044743665	0.53450603	0.12147234	0.072592679	-0.12137473	0.073969761	-0.038283844	0.48504089	0.047739339	0.09037978	0.11187487	0.42623364	-0.096953427	0.40302165	0.46328112	0.1594425	0.091732924	0.43130426	0.022934553	0.39364459	0.43929831	0.028558152	0.20348481	0.80382582	-0.16097469	0.22807124	0.79371872	0.1860574	0.28914377	0.84485633	-0.12201012	0.31202303	0.84937927	0.12478988	0.11520525	0.92298718	0.025695786	0.25079538	1.3362114	-0.17121335	0.22524703	1.3171536	0.19019313	0.16326221	1.3630606	0.0035675244	0.27759923	1.0162721	-0.25114929	0.084014062	1.0334933	0.2354585	0.49897886	0.90624209	-0.21152004	0.15543382	0.80768174	0.28666446
252	1.004	0.072282156	0.034125082	-0.05578431	0.66358998	0.12521115	0.14776164	-0.042199099	0.088019337	-0.083038686	0.52997057	0.092098241	0.15777799	-0.039910727	0.10271349	0.0040886905	0.54808669	0.12291376	0.073034172	-0.12084908	0.07550142	-0.038829861	0.50005108	0.048108066	0.091536419	0.11557244	0.42569284	-0.097176072	0.40970768	0.46149351	0.15950428	0.095908133	0.43059317	0.022742804	0.40045825	0.43712299	0.027812729	0.20891035	0.80271564	-0.16055438	0.23573686	0.79198411	0.1860744	0.29538732	0.84363867	-0.12197178	0.31950416	0.84794727	0.12470524	0.12238239	0.92157269	0.027136468	0.25735352	1.3347392	-0.17077455	0.23166808	1.3157199	0.19066929	0.16980913	1.3617035	0.0040052221	0.28573651	1.0149316	-0.25076292	0.089830745	1.0324784	0.23544795	0.50800031	0.90679626	-0.2101239	0.15945515	0.80636978	0.28747012
253	1.008	0.072298237	0.03410194	-0.055834861	0.67698366	0.12902944	0.14742847	-0.041364636	0.088681285	-0.083315057	0.5437464	0.093779085	0.15831211	-0.039163739	0.10356203	0.0037223918	0.5612491	0.12433151	0.073294427	-0.12027988	0.077109067	-0.039355005	0.51446822	0.048559655	0.092262842	0.11939967	0.42512808	-0.097390905	0.41652019	0.45985835	0.15956083	0.10038008	0.42989803	0.022461715	0.40729809	0.43514212	0.027204996	0.21438564	0.8016029	-0.16007604	0.24338509	0.79022029	0.18606111	0.301658	0.84238611	-0.12189917	0.32706023	0.84657107	0.12463376	0.12956567	0.92015791	0.028463	0.26392231	1.3332413	-0.17031653	0.23811193	1.3142691	0.19117567	0.17636978	1.3603472	0.0044637978	0.29379582	1.0135873	-0.25030735	0.095749107	1.0314103	0.23547518	0.5169421	0.90727319	-0.20872861	0.16350467	0.80502126	0.28825594
254	1.012	0.07231684	0.03407787	-0.055882733	0.68969274	0.13246311	0.14708014	-0.040448437	0.089416015	-0.083697501	0.55668393	0.095296866	0.15850271	-0.038374117	0.10446012	0.0033752337	0.57392745	0.12569091	0.073368228	-0.11966515	0.078796162	-0.039838932	0.5282708	0.04905224	0.092516526	0.12336262	0.42454912	-0.097591202	0.42353644	0.45841162	0.15959714	0.10513998	0.42922525	0.022099325	0.41417139	0.43334637	0.026764594	0.21992375	0.80048677	-0.15956329	0.25112534	0.78846021	0.18611253	0.30797547	0.84112328	-0.121781	0.3346898	0.84526154	0.12457983	0.1367349	0.91874603	0.029624956	0.27050561	1.3317266	-0.16983444	0.24459553	1.3128117	0.19171875	0.18294333	1.3589951	0.0049574346	0.30180391	1.0122364	-0.24979965	0.10180274	1.0303004	0.2355588	0.52581063	0.90767936	-0.20732318	0.16775548	0.80366772	0.28907777
255	1.016	0.072339849	0.034054415	-0.055929126	0.70173115	0.13543594	0.14673375	-0.039556345	0.090276608	-0.084085619	0.56886176	0.096520104	0.15831781	-0.037537309	0.10540834	0.0030391609	0.58602355	0.12695557	0.073265121	-0.11900808	0.080569485	-0.040290075	0.5414269	0.049533132	0.092310629	0.12746158	0.4239617	-0.097768578	0.43082137	0.45715811	0.15960824	0.11004846	0.42855876	0.021748157	0.42111965	0.43171907	0.026477005	0.22553826	0.79935649	-0.15905912	0.25909354	0.78676435	0.18631958	0.31430293	0.83987487	-0.12162205	0.34229778	0.84397743	0.12449177	0.1438655	0.91733916	0.030555805	0.27710682	1.330207	-0.16933549	0.2511228	1.3113576	0.19229349	0.18953106	1.3576465	0.0054975817	0.30979174	1.0108722	-0.24926132	0.10798074	1.0291583	0.23570965	0.53460532	0.90801581	-0.20591122	0.17229094	0.80232825	0.28995755
256	1.02	0.072370036	0.034033259	-0.055976835	0.71312186	0.13789633	0.14637743	-0.038688506	0.091249277	-0.084418144	0.58041119	0.097334294	0.15777753	-0.036635589	0.10641453	0.002709591	0.59749525	0.12807652	0.072999405	-0.11831169	0.082433942	-0.040729714	0.55390573	0.049944725	0.091713004	0.13168557	0.42337058	-0.097920717	0.43840314	0.45608967	0.15960184	0.11487858	0.42786489	0.021562555	0.42819496	0.43025794	0.026297755	0.23123597	0.79818976	-0.15859379	0.26733988	0.785182	0.18670269	0.32055198	0.83865843	-0.12142882	0.34973731	0.84263211	0.1242853	0.15092997	0.91593992	0.031179641	0.28372739	1.3286911	-0.16883459	0.25768621	1.3099113	0.19289083	0.19615462	1.3562993	0.0060680638	0.31778462	1.0094893	-0.24871015	0.11425992	1.0279929	0.23592809	0.54331457	0.90828123	-0.2045128	0.17704323	0.80099478	0.2908774
257	1.024	0.072409512	0.034016414	-0.056028855	0.72387967	0.13981514	0.1459826	-0.037767644	0.092289626	-0.084720639	0.59137005	0.097743923	0.15698808	-0.03564832	0.10749068	0.0023832868	0.60836499	0.12899628	0.072581874	-0.11756401	0.084396525	-0.041170116	0.56567352	0.050236955	0.090821314	0.13602705	0.42278155	-0.098053502	0.44626479	0.4551934	0.15958883	0.11951849	0.42712242	0.021624115	0.43542351	0.42898362	0.026183021	0.23701845	0.79694844	-0.15818019	0.27580652	0.78372949	0.18721442	0.32664974	0.83748148	-0.1212292	0.35696837	0.84117341	0.12394359	0.1579104	0.91455688	0.031458249	0.29036948	1.3271824	-0.16833885	0.26428074	1.308476	0.19350813	0.20285469	1.3549566	0.0066190353	0.32578831	1.0080891	-0.24815095	0.12062709	1.0268172	0.23620117	0.55193272	0.90847775	-0.2031415	0.18185366	0.79965237	0.29180799
258	1.028	0.072459168	0.034006605	-0.056086772	0.73401532	0.14117413	0.14552237	-0.03674766	0.093379226	-0.08503597	0.60172358	0.097819018	0.1560805	-0.034570644	0.10864409	0.0020495413	0.61866028	0.12965484	0.072022465	-0.11673699	0.086467461	-0.041609862	0.57669146	0.05037345	0.089742937	0.14048949	0.42219931	-0.09817902	0.45434922	0.4544438	0.15956616	0.12411712	0.42635221	0.021834557	0.44280156	0.42792907	0.026098792	0.2428897	0.79560827	-0.15782414	0.28439876	0.78240195	0.18779909	0.33264213	0.83633837	-0.12110739	0.36413257	0.83964791	0.12355816	0.1648257	0.91321224	0.031489056	0.29703972	1.3256842	-0.16784187	0.27090862	1.3070567	0.19414974	0.20965359	1.3536336	0.0071189162	0.33377739	1.0066836	-0.24756831	0.12707804	1.0256385	0.23651766	0.56046926	0.90860748	-0.20178872	0.18660907	0.79830657	0.29273541
